<?xml version="1.0" standalone="no"?>
<!DOCTYPE svg PUBLIC "-//W3C//DTD SVG 20010904//EN"
 "http://www.w3.org/TR/2001/REC-SVG-20010904/DTD/svg10.dtd">
<svg version="1.0" xmlns="http://www.w3.org/2000/svg"
 width="300.000000pt" height="300.000000pt" viewBox="0 0 300.000000 300.000000"
 preserveAspectRatio="xMidYMid meet">
<metadata>
Created by potrace 1.14, written by Peter Selinger 2001-2017
</metadata>
<g transform="translate(0.000000,300.000000) scale(0.100000,-0.100000)"
fill="#000000" stroke="none">
<path d="M1024 2413 c-19 -112 -14 -104 -104 -166 l-85 -57 -17 -83 c-9 -45
-19 -97 -21 -114 l-6 -33 62 42 c203 137 484 332 497 345 13 12 9 19 -35 58
l-50 44 -117 1 -117 0 -7 -37z"/>
<path d="M672 1608 c-8 -21 -55 -71 -131 -137 l-118 -105 -23 -135 c-13 -75
-27 -145 -31 -156 -4 -11 -44 -60 -89 -108 -45 -48 -81 -89 -79 -91 2 -1 60
-12 128 -24 l124 -21 46 49 c29 31 71 61 116 82 68 32 74 33 193 32 l123 -1
-6 131 c-10 191 -17 210 -131 374 -54 78 -101 141 -104 142 -4 0 -11 -15 -18
-32z"/>
<path d="M1097 1306 c-49 -18 -64 -32 -89 -80 -36 -70 -14 -148 56 -200 40
-30 130 -29 174 3 43 30 65 76 66 131 0 107 -107 182 -207 146z m108 -91 c30
-30 32 -73 5 -107 -38 -49 -118 -37 -138 21 -29 84 71 149 133 86z"/>
<path d="M1507 1306 c-77 -28 -112 -81 -105 -161 5 -63 29 -98 86 -126 103
-51 222 25 222 141 0 104 -106 181 -203 146z m108 -98 c48 -56 13 -130 -61
-130 -74 0 -111 86 -59 137 36 37 86 34 120 -7z"/>
<path d="M2393 1309 c-67 -20 -122 -106 -109 -172 14 -76 85 -137 158 -137 52
0 110 39 136 90 27 55 28 82 1 136 -33 69 -114 105 -186 83z m101 -90 c56 -44
19 -142 -54 -142 -73 0 -110 98 -54 142 15 12 39 21 54 21 15 0 39 -9 54 -21z"/>
<path d="M665 921 c-134 -62 -168 -243 -65 -342 29 -28 67 -47 158 -79 155
-54 182 -71 182 -110 0 -41 -38 -65 -105 -64 -70 1 -110 27 -138 86 l-22 47
-67 1 -68 0 0 -135 0 -135 70 0 70 0 0 30 c0 17 2 30 5 30 2 0 21 -11 41 -25
107 -73 270 -58 356 32 86 91 74 255 -23 320 -21 14 -93 45 -161 69 -135 49
-158 64 -158 104 0 36 20 51 73 57 71 7 139 -38 161 -110 5 -15 15 -17 71 -15
36 2 65 6 65 11 0 4 0 59 0 122 l0 115 -70 0 -70 0 0 -32 0 -31 -23 21 c-38
36 -91 52 -169 52 -50 0 -86 -6 -113 -19z"/>
<path d="M1180 806 l0 -124 63 -4 c34 -3 65 -3 70 -1 4 2 7 29 7 59 l0 54 50
0 50 0 0 -230 0 -230 -45 0 -45 0 0 -70 0 -70 190 0 190 0 0 70 0 70 -45 0
-45 0 0 230 0 230 50 0 49 0 3 -57 3 -58 70 0 70 0 3 128 3 127 -346 0 -345 0
0 -124z"/>
<path d="M1902 803 l3 -128 70 0 70 0 3 58 3 57 49 0 50 0 0 -230 0 -230 -45
0 -45 0 0 -70 0 -70 185 0 185 0 0 70 0 70 -45 0 -45 0 0 230 0 230 55 0 54 0
3 -57 3 -58 65 0 65 0 3 128 3 127 -346 0 -346 0 3 -127z"/>
</g>
</svg>
